<svg xmlns="http://www.w3.org/2000/svg" width="596.344" height="66.906" viewBox="0 0 596.344 66.906">
  <defs>
    <style>
      .cls-1 {
        fill: #282828;
        fill-rule: evenodd;
        opacity: 0.07;
      }
    </style>
  </defs>
  <path id="production" class="cls-1" d="M366.253,174.006v63.829H380.1v-22.95h14.293c12.775,0,22.6-6.454,22.6-20.35,0-14.075-9.558-20.529-23.315-20.529H366.253ZM380.1,185.481h12.507c6.164,0,10.809,2.42,10.809,9.233,0,7.083-4.645,9.145-10.9,9.145H380.1V185.481Zm46.19-11.475v63.829h13.846V212.823h12.417c9.112,0,11.792,3.138,12.685,11.924,0.357,3.5.357,9.861,1.965,13.088h14.472c-2.5-2.33-2.68-11.116-3.037-15.15-0.536-6.276-2.323-13.448-9.38-14.882,6.343-2.42,10.094-8.248,10.094-15.688,0-12.82-9.737-18.109-21.439-18.109H426.289Zm13.846,11.026h13.846c5.9,0,11.7,1.255,11.7,8.607,0,7.889-5.807,9.054-12.328,9.054H440.135V185.032Zm78.884-12.55c-19.027,0-31.533,13.268-31.533,33.528,0,19.992,12.6,33.349,31.444,33.349,18.67,0,31.266-13.447,31.266-33.349C550.2,186.018,537.6,172.482,519.019,172.482Zm-0.178,11.475c10.63,0,17.241,8.337,17.241,21.784,0,13.627-6.521,22.054-17.063,22.054-10.809-.09-17.419-8.338-17.419-22.054C501.6,192.473,508.3,183.957,518.841,183.957Zm41.01,53.878h25.727c19.742,0,30.819-11.385,30.819-31.915,0-20.619-11.077-31.914-30.819-31.914H559.851v63.829ZM573.7,226.181V185.66h10.184c12.6,0,18.491,7.441,18.491,20.26s-5.717,20.261-18.491,20.261H573.7Zm106.4-52.175H666.161V212.2c0,9.413-2.233,15.33-12.953,15.33-10.9,0-13.668-5.558-13.668-15.33v-38.19H625.605V212.2c0,18.2,8.486,26.894,27.424,26.894,18.581,0,27.068-8.516,27.068-26.715V174.006Zm68.88,39.176H735.131c-1.161,9.323-6.164,14.344-14.561,14.344-10.273,0-16.794-8.427-16.794-21.606,0-10.668,4.734-21.694,16.973-21.694,7.5,0,12.685,4.123,14.114,11.116H748.53c-1.072-13.178-12.238-22.86-27.513-22.86-19.475,0-31.266,14.792-31.266,33.349,0,20.171,12.238,33.528,30.73,33.528C737.9,239.359,747.548,228.781,748.977,213.182Zm56.642-39.176H753.361v11.923h19.117v51.906H786.5V185.929h19.116V174.006Zm21.355,0H812.949v63.829h14.025V174.006Zm41.095-1.524c-19.028,0-31.534,13.268-31.534,33.528,0,19.992,12.6,33.349,31.445,33.349,18.67,0,31.265-13.447,31.265-33.349C899.245,186.018,886.65,172.482,868.069,172.482Zm-0.179,11.475c10.631,0,17.241,8.337,17.241,21.784,0,13.627-6.521,22.054-17.062,22.054-10.809-.09-17.42-8.338-17.42-22.054C850.649,192.473,857.349,183.957,867.89,183.957Zm40.921,53.878H922.3V194.983l26.352,42.852h13.936V174.006h-13.4v42.762l-26.174-42.762h-14.2v63.829Z" transform="translate(-366.25 -172.469)"/>
</svg>
