<svg xmlns="http://www.w3.org/2000/svg" width="253.094" height="24.25" viewBox="0 0 253.094 24.25">
  <defs>
    <style>
      .cls-1 {
        fill: #fff;
        fill-rule: evenodd;
      }
    </style>
  </defs>
  <path id="polymerium" class="cls-1" d="M125.461,37.911a8.2,8.2,0,0,0-5.5,1.875,6.743,6.743,0,0,0-2.338,5.393v0.329h-1.976l1.976,1.339V61.479l1.548-1.306V46.85h12.778a8.191,8.191,0,0,0,5.615-1.955,6.746,6.746,0,0,0,2.223-5.34V37.911H125.461Zm-6.29,7.268a5.551,5.551,0,0,1,1.761-4.328,6.628,6.628,0,0,1,4.628-1.6h12.679v0.3a5.592,5.592,0,0,1-1.762,4.361,6.627,6.627,0,0,1-4.627,1.6H119.171V45.179Zm33.954-7.268a8.216,8.216,0,0,0-5.5,1.869,6.716,6.716,0,0,0-2.338,5.378V60.865h15.05a8.2,8.2,0,0,0,5.615-1.951,6.724,6.724,0,0,0,2.223-5.329V37.911h-15.05Zm-6.291,7.246a5.523,5.523,0,0,1,1.762-4.313,6.643,6.643,0,0,1,4.627-1.591h13.4V53.586a5.558,5.558,0,0,1-1.762,4.346,6.639,6.639,0,0,1-4.627,1.591h-13.4V45.157Zm48.709,14.365H176.211V38.591l-1.548-1.31V60.865H197.09V52.973l-1.547,1.179v5.37Zm13.535-14.05V61.479l1.548-1.309v-14.7l8.036-7.561h-1.943L209.934,44.3l-6.784-6.385h-2.108ZM223.6,61.487l1.547-1.31V40.269l9.88,6.876,9.815-6.876v19.9l1.547,1.309V37.256l-11.362,8.186L223.6,37.281V61.487Zm37.543-23.575a8.187,8.187,0,0,0-5.615,1.957,6.714,6.714,0,0,0-2.223,5.311v0.329h-1.976l1.976,1.342V60.865h21.868l-1.021-1.343h-19.3V46.85h11.757l1.021-1.342H254.855V45.179a5.548,5.548,0,0,1,1.762-4.328,6.626,6.626,0,0,1,4.627-1.6h13.272l1.054-1.343H261.145Zm20.024,8.935V61.479l1.548-1.306V46.85H286.8l13.536,13.982h2.108L288.908,46.85H295.5a8.191,8.191,0,0,0,5.615-1.955,6.746,6.746,0,0,0,2.223-5.34V37.911H289.007a8.2,8.2,0,0,0-5.5,1.875,6.743,6.743,0,0,0-2.338,5.393v0.329h-1.976Zm1.548-1.668a5.548,5.548,0,0,1,1.762-4.328,6.626,6.626,0,0,1,4.627-1.6h12.679v0.3a5.592,5.592,0,0,1-1.762,4.361,6.627,6.627,0,0,1-4.627,1.6H282.717V45.179ZM310.479,60.17V38.589l-1.548-1.308v24.2Zm21.044,0.694a7.789,7.789,0,0,0,5.9-2.23,7.025,7.025,0,0,0,1.943-5.05V37.256l-1.548,1.312V53.587a5.56,5.56,0,0,1-1.762,4.345,6.643,6.643,0,0,1-4.627,1.59H318.614V38.591l-1.548-1.31V60.865h14.457Zm14.425,0.622,1.548-1.31V40.269l9.88,6.876,9.814-6.876v19.9l1.548,1.309V37.256l-11.362,8.186-11.428-8.161V61.487Z" transform="translate(-115.656 -37.25)"/>
</svg>
